<svg xmlns="http://www.w3.org/2000/svg" style="display:none">
  <symbol id="home" viewBox="0 0 24 24" fill="none" stroke="currentColor" stroke-width="1.8" stroke-linecap="round" stroke-linejoin="round">
    <path d="M3 10.5 12 3l9 7.5"/>
    <path d="M5 9.5V21h14V9.5"/>
    <path d="M9 21v-6h6v6"/>
  </symbol>
  <symbol id="map" viewBox="0 0 24 24" fill="none" stroke="currentColor" stroke-width="1.8" stroke-linecap="round" stroke-linejoin="round">
    <path d="M3 6.5 9 4l6 2.5L21 4v13.5L15 20l-6-2.5L3 20z"/>
    <path d="M9 4v13.5M15 6.5V20"/>
  </symbol>
  <symbol id="menu" viewBox="0 0 24 24" fill="none" stroke="currentColor" stroke-width="1.8" stroke-linecap="round">
    <path d="M4 7h16M4 12h16M4 17h12"/>
  </symbol>
  <symbol id="cart" viewBox="0 0 24 24" fill="none" stroke="currentColor" stroke-width="1.8" stroke-linecap="round" stroke-linejoin="round">
    <path d="M3 5h2l2.3 10.2a2 2 0 0 0 2 1.6h7.9a2 2 0 0 0 2-1.5L22 8H7.1"/>
    <circle cx="10" cy="20" r="1.5"/><circle cx="18" cy="20" r="1.5"/>
  </symbol>
  <symbol id="wallet" viewBox="0 0 24 24" fill="none" stroke="currentColor" stroke-width="1.8" stroke-linecap="round" stroke-linejoin="round">
    <path d="M3 7a2 2 0 0 1 2-2h12a2 2 0 0 1 2 2v2H5a2 2 0 0 0 0 4h14v4a2 2 0 0 1-2 2H5a2 2 0 0 1-2-2z"/>
    <path d="M18 11h3v2h-3z"/>
  </symbol>
  <symbol id="report" viewBox="0 0 24 24" fill="none" stroke="currentColor" stroke-width="1.8" stroke-linecap="round" stroke-linejoin="round">
    <path d="M6 3h9l5 5v13H6z"/>
    <path d="M15 3v5h5"/>
    <path d="M12 11v5M12 19h.01"/>
  </symbol>
  <symbol id="user" viewBox="0 0 24 24" fill="none" stroke="currentColor" stroke-width="1.8" stroke-linecap="round" stroke-linejoin="round">
    <circle cx="12" cy="8" r="4"/>
    <path d="M4 21a8 8 0 0 1 16 0"/>
  </symbol>
  <symbol id="store" viewBox="0 0 24 24" fill="none" stroke="currentColor" stroke-width="1.8" stroke-linecap="round" stroke-linejoin="round">
    <path d="M3 10h18l-1.5 11h-15z"/>
    <path d="M4 10 6 3h12l2 7"/>
    <path d="M9 14h6"/>
  </symbol>
  <symbol id="staff" viewBox="0 0 24 24" fill="none" stroke="currentColor" stroke-width="1.8" stroke-linecap="round" stroke-linejoin="round">
    <path d="m12 2 2.5 5 5.5.8-4 3.9.9 5.5-4.9-2.6-4.9 2.6.9-5.5-4-3.9L9.5 7z"/>
    <circle cx="12" cy="20" r="2"/>
  </symbol>
  <symbol id="admin" viewBox="0 0 24 24" fill="none" stroke="currentColor" stroke-width="1.8" stroke-linecap="round" stroke-linejoin="round">
    <rect x="3" y="4" width="18" height="16" rx="2"/>
    <path d="M3 10h18M8 4v16"/>
  </symbol>
  <symbol id="chart" viewBox="0 0 24 24" fill="none" stroke="currentColor" stroke-width="1.8" stroke-linecap="round" stroke-linejoin="round">
    <path d="M4 20V4M4 20h16"/>
    <path d="M8 16v-5M12 16V8M16 16v-8M20 16v-3"/>
  </symbol>
  <symbol id="history" viewBox="0 0 24 24" fill="none" stroke="currentColor" stroke-width="1.8" stroke-linecap="round" stroke-linejoin="round">
    <path d="M3 12a9 9 0 1 0 3-6.7"/>
    <path d="M3 4v4h4"/>
    <path d="M12 7v6l4 2"/>
  </symbol>
  <symbol id="logout" viewBox="0 0 24 24" fill="none" stroke="currentColor" stroke-width="1.8" stroke-linecap="round" stroke-linejoin="round">
    <path d="M10 17v2a2 2 0 0 1-2 2H5a2 2 0 0 1-2-2V5a2 2 0 0 1 2-2h3a2 2 0 0 1 2 2v2"/>
    <path d="M15 16l5-4-5-4"/>
    <path d="M20 12H9"/>
  </symbol>
  <symbol id="chevron-down" viewBox="0 0 24 24" fill="none" stroke="currentColor" stroke-width="1.8" stroke-linecap="round" stroke-linejoin="round">
    <path d="m6 9 6 6 6-6"/>
  </symbol>
  <symbol id="check" viewBox="0 0 24 24" fill="none" stroke="currentColor" stroke-width="2" stroke-linecap="round" stroke-linejoin="round">
    <path d="m4 12 5 5L20 6"/>
  </symbol>
</svg>
